<svg xmlns="http://www.w3.org/2000/svg" aria-hidden="true" style="position:absolute;width:0;height:0;overflow:hidden"><defs><symbol id="icon-input-mail" viewBox="0 0 24 32"><path d="M20 8H4a2 2 0 0 0-2 2v12c0 1.1.9 2 2 2h16a2 2 0 0 0 2-2V10a2 2 0 0 0-2-2zm-.4 4.3-7 4.4a1 1 0 0 1-1.1 0l-7.1-4.4a.8.8 0 1 1 .9-1.4L12 15l6.7-4.2a.8.8 0 1 1 .9 1.4z"/></symbol><symbol id="icon-input-name" viewBox="0 0 32 32"><path d="M16 16a5.3 5.3 0 1 0 0-10.7A5.3 5.3 0 0 0 16 16zm0 2.7c-3.6 0-10.7 1.8-10.7 5.3v1.3c0 .8.6 1.4 1.4 1.4h18.6c.8 0 1.4-.6 1.4-1.4V24c0-3.5-7.1-5.3-10.7-5.3z" /></symbol><symbol id="icon-input-phone" viewBox="0 0 24 32"><path d="m19.6 18.5-2.4-.3a2 2 0 0 0-1.6.6l-1.8 1.7c-2.7-1.4-5-3.6-6.3-6.3l1.8-1.8c.4-.4.6-1 .5-1.6l-.3-2.4a2 2 0 0 0-1.9-1.7H5.9c-1 0-2 .9-1.9 2 .5 8.2 7.1 14.8 15.3 15.3 1.1 0 2-.8 2-2v-1.6a2 2 0 0 0-1.7-2z"/></symbol><symbol id="icon-telegram" viewBox="0 0 32 32"><path d="m32 2.7-32 15 10.2 3.1L26 8.5 14 22v7.3l5.7-5.5L27 26l5-23.3z" /></symbol></defs></svg>