<svg aria-hidden="true" style="position: absolute; width: 0; height: 0; overflow: hidden;" version="1.1" xmlns="http://www.w3.org/2000/svg" xmlns:xlink="http://www.w3.org/1999/xlink">
<defs>
<symbol id="icon-instagram" viewBox="0 0 32 32">
<path  d="M31.969 9.408c-0.075-1.7-0.35-2.869-0.744-3.882-0.406-1.075-1.031-2.038-1.85-2.838-0.8-0.813-1.769-1.444-2.832-1.844-1.019-0.394-2.182-0.669-3.882-0.744-1.713-0.081-2.257-0.1-6.601-0.1s-4.888 0.019-6.595 0.094c-1.7 0.075-2.869 0.35-3.882 0.744-1.075 0.406-2.038 1.031-2.838 1.85-0.813 0.8-1.444 1.769-1.844 2.832-0.394 1.019-0.669 2.182-0.744 3.882-0.081 1.713-0.1 2.257-0.1 6.601s0.019 4.888 0.094 6.595c0.075 1.7 0.35 2.869 0.744 3.882 0.406 1.075 1.038 2.038 1.85 2.838 0.8 0.813 1.769 1.444 2.832 1.844 1.019 0.394 2.182 0.669 3.882 0.744 1.706 0.075 2.25 0.094 6.595 0.094s4.888-0.018 6.595-0.094c1.7-0.075 2.869-0.35 3.882-0.744 2.151-0.831 3.851-2.532 4.682-4.682 0.394-1.019 0.669-2.182 0.744-3.882 0.075-1.707 0.094-2.251 0.094-6.595s-0.006-4.888-0.081-6.595zM29.087 22.473c-0.069 1.563-0.331 2.407-0.55 2.969-0.538 1.394-1.644 2.501-3.038 3.038-0.563 0.219-1.413 0.481-2.969 0.55-1.688 0.075-2.194 0.094-6.464 0.094s-4.782-0.018-6.464-0.094c-1.563-0.069-2.407-0.331-2.969-0.55-0.694-0.256-1.325-0.663-1.838-1.194-0.531-0.519-0.938-1.144-1.194-1.838-0.219-0.563-0.481-1.413-0.55-2.969-0.075-1.688-0.094-2.194-0.094-6.464s0.019-4.782 0.094-6.464c0.069-1.563 0.331-2.407 0.55-2.969 0.256-0.694 0.663-1.325 1.2-1.838 0.519-0.531 1.144-0.938 1.838-1.194 0.563-0.219 1.413-0.481 2.969-0.55 1.688-0.075 2.194-0.094 6.464-0.094 4.276 0 4.782 0.019 6.464 0.094 1.563 0.069 2.407 0.331 2.969 0.55 0.694 0.256 1.325 0.662 1.838 1.194 0.531 0.519 0.938 1.144 1.194 1.838 0.219 0.563 0.481 1.413 0.55 2.969 0.075 1.688 0.094 2.194 0.094 6.464s-0.019 4.77-0.094 6.457z"></path>
<path  d="M16.059 7.782c-4.538 0-8.22 3.682-8.22 8.22s3.682 8.22 8.22 8.22c4.538 0 8.22-3.682 8.22-8.22s-3.682-8.22-8.22-8.22zM16.059 21.335c-2.944 0-5.332-2.388-5.332-5.332s2.388-5.332 5.332-5.332c2.944 0 5.332 2.388 5.332 5.332s-2.388 5.332-5.332 5.332v0z"></path>
<path  d="M26.524 7.457c0 1.060-0.859 1.919-1.919 1.919s-1.919-0.859-1.919-1.919c0-1.060 0.859-1.919 1.919-1.919s1.919 0.859 1.919 1.919v0z"></path>
</symbol>
<symbol id="icon-company1" viewBox="0 0 59 32">
<path  d="M21.714 4l4 3.829h-7.429v18.457h19.429v-7.029l4 3.771v-19.029h-20zM37.543 18.8l-11.371-10.857h11.371v10.857zM34 23.6h-12.629v-12.457h0.857v11.6h11.771v0.857zM23.886 29.771l-0.457-0.971h-0.4l0.686 1.257v0.8h0.343v-0.743l0.686-1.257h-0.4l-0.457 0.971zM25.6 28.8h0.114l0.743 2h-0.343l-0.171-0.457h-0.8l-0.171 0.457h-0.343l0.743-2h0.229zM25.257 30.057h0.571l-0.286-0.857-0.286 0.857zM27.714 29.714c-0.050-0.062-0.106-0.136-0.16-0.212l-0.011-0.016v-0.514l0.229-0.171h0.514c0.154 0.076 0.258 0.231 0.258 0.411 0 0.058-0.011 0.113-0.030 0.163l0.001-0.003-0.114 0.171-0.171 0.114-0.114 0.114 0.4 0.457c0.070-0.114 0.112-0.252 0.114-0.399v-0.001h0.286v0.286c-0.033 0.132-0.092 0.247-0.173 0.344l0.001-0.001 0.286 0.343h-0.457l-0.114-0.114-0.229 0.114c-0.093 0.035-0.201 0.056-0.314 0.056s-0.221-0.020-0.321-0.058l0.006 0.002c-0.097-0.054-0.175-0.131-0.227-0.226l-0.002-0.003c-0.048-0.082-0.077-0.181-0.077-0.286s0.028-0.204 0.078-0.288l-0.001 0.003 0.286-0.286zM27.886 29.943h-0.057l-0.114 0.114c-0.029 0.049-0.046 0.108-0.046 0.171s0.017 0.122 0.047 0.173l-0.001-0.002c0 0.057 0 0.114 0.114 0.114l0.171 0.057c0.129 0 0.249-0.043 0.344-0.115l-0.001 0.001-0.457-0.571zM27.943 29.543l0.114-0.057 0.171-0.114v-0.286l-0.229-0.057c-0.074 0.009-0.136 0.052-0.171 0.113l-0.001 0.001c-0.015 0.034-0.024 0.073-0.024 0.114s0.009 0.081 0.025 0.116l-0.001-0.002 0.114 0.171zM31.486 30.114h-0.343v0.286l-0.171 0.114c-0.043 0.012-0.092 0.018-0.143 0.018s-0.1-0.007-0.147-0.019l0.004 0.001h-0.171c-0.068-0.024-0.126-0.063-0.171-0.114l-0-0-0.057-0.229v-0.743l0.057-0.229 0.171-0.114h0.457l0.114 0.114 0.057 0.229h0.343c0-0.114 0-0.229-0.114-0.343 0-0.114-0.114-0.171-0.229-0.229l-0.4-0.114-0.343 0.057-0.286 0.229-0.171 0.286v0.971c0 0.114 0.114 0.229 0.171 0.286 0.134 0.171 0.34 0.281 0.571 0.286h0.001c0.171 0 0.343 0 0.457-0.114 0.114 0 0.171-0.114 0.229-0.229l0.114-0.343zM33.429 29.829v-0.514l-0.229-0.286-0.229-0.229h-0.686l-0.286 0.229-0.171 0.286-0.057 0.4v0.571l0.229 0.286c0.134 0.171 0.34 0.281 0.571 0.286h0.001l0.4-0.057 0.229-0.229 0.171-0.286 0.057-0.457zM33.143 29.714v0.457l-0.114 0.229-0.171 0.114h-0.4c-0.067-0.026-0.125-0.065-0.171-0.114l-0-0-0.114-0.229v-0.743l0.114-0.229 0.171-0.114h0.4l0.171 0.114 0.114 0.229v0.286z"></path>
</symbol>
<symbol id="icon-company2" viewBox="0 0 59 32">
<path  d="M28.629 3.429h-0.629c-0.111-0.003-0.241-0.005-0.371-0.005s-0.261 0.002-0.39 0.005l0.019-0c-2.114 0-4.171 0.571-6.057 1.429l-0.286 0.114v12.743l0.571-0.229c1.867-0.634 4.020-1.027 6.257-1.085l0.029-0.001v1.714h-0.629c-2.888 0.147-5.563 0.933-7.926 2.22l0.097-0.048v-16.229c2.453-1.467 5.41-2.337 8.57-2.343h0.288c1.080 0.049 2.099 0.192 3.084 0.422l-0.113-0.022v1.6c-0.686-0.171-1.371-0.229-2.057-0.286h-0.514zM31.486 5.086h1.143c3.167-0.009 6.139-0.833 8.72-2.275l-0.091 0.047v16c-2.435 1.423-5.361 2.263-8.483 2.263-1.163 0-2.3-0.117-3.398-0.339l0.109 0.018v-16c0.596 0.138 1.3 0.24 2.020 0.284l0.037 0.002zM39.6 5.2l-0.571 0.171-1.6 0.514c-1.442 0.38-3.098 0.598-4.805 0.598-0.36 0-0.718-0.010-1.073-0.029l0.050 0.002h-0.457v12.971h0.343l1.143 0.114c2.478-0.005 4.817-0.595 6.888-1.64l-0.088 0.040 0.229-0.114v-12.629z"></path>
<path  d="M20.4 25.829c-0.15-0.139-0.35-0.226-0.571-0.229h-0.401c-0.336 0.121-0.573 0.437-0.573 0.809 0 0.017 0 0.034 0.001 0.051l-0-0.002v2.171c0 0.171 0 0.343 0.114 0.457 0 0.114 0.114 0.229 0.171 0.286l0.343 0.171h0.629c0.338-0.139 0.571-0.466 0.571-0.848 0-0.003-0-0.007-0-0.010v0-0.229h-0.571v0.343l-0.229 0.229h-0.114c-0.016 0.003-0.035 0.005-0.053 0.005-0.095 0-0.18-0.047-0.232-0.119l-0.001-0.001-0.057-0.343v-2.057l0.057-0.286c0.045-0.102 0.145-0.172 0.262-0.172 0.008 0 0.016 0 0.024 0.001l-0.001-0c0.103 0.013 0.188 0.079 0.228 0.17l0.001 0.002c0.114 0.057 0.114 0.171 0.114 0.286v0.171h0.571v-0.229c-0.007-0.267-0.115-0.507-0.286-0.686l0 0zM23.771 25.829c-0.174-0.14-0.399-0.225-0.643-0.225-0.118 0-0.231 0.020-0.336 0.056l0.007-0.002c-0.114 0-0.229 0.057-0.286 0.171l-0.229 0.286-0.057 0.4v2.114l0.057 0.4c0 0.114 0.114 0.229 0.229 0.286 0.057 0.114 0.171 0.171 0.286 0.171 0.102 0.040 0.22 0.063 0.343 0.063s0.241-0.023 0.349-0.065l-0.007 0.002c0.114 0 0.229-0.057 0.286-0.171 0.176-0.167 0.286-0.403 0.286-0.664 0-0.008-0-0.015-0-0.023l0 0.001v-2.114l-0.057-0.4c0-0.114-0.114-0.229-0.229-0.286zM23.543 28.629c0 0.002 0 0.004 0 0.006 0 0.109-0.044 0.208-0.114 0.28l0-0c-0.073 0.074-0.174 0.12-0.286 0.12s-0.213-0.046-0.286-0.12l-0-0c-0.071-0.072-0.114-0.171-0.114-0.28 0-0.002 0-0.004 0-0.006v0-2.114c-0-0.002-0-0.004-0-0.006 0-0.109 0.044-0.208 0.114-0.28l-0 0c0.073-0.074 0.174-0.12 0.286-0.12s0.213 0.046 0.286 0.12l0 0c0.071 0.072 0.114 0.171 0.114 0.28 0 0.002 0 0.004-0 0.006v-0 2.114zM28.229 29.543v-3.943h-0.571l-0.686 2.114-0.743-2.114h-0.571v3.943h0.571v-2.4l0.571 1.714h0.286l0.571-1.714v2.4h0.571zM31.429 25.886l-0.343-0.229h-1.257v3.886h0.571v-1.543h0.286c0.171 0 0.343 0 0.514-0.114l0.286-0.286 0.171-0.343c0.030-0.155 0.048-0.332 0.048-0.514s-0.017-0.36-0.050-0.532l0.003 0.018-0.229-0.343zM31.143 27.029l-0.057 0.286-0.171 0.114c-0.043 0.012-0.092 0.018-0.143 0.018s-0.1-0.007-0.147-0.019l0.004 0.001h-0.229v-1.314h0.286l0.229 0.057 0.171 0.171v0.743zM34.057 25.6h-0.457l-0.857 3.943h0.571l0.171-0.857h0.743l0.171 0.857h0.571l-0.914-3.943zM33.543 28.171l0.286-1.429 0.286 1.429h-0.571zM37.714 28l-0.914-2.4h-0.514v3.943h0.571v-2.343l0.857 2.343h0.571v-3.943h-0.571v2.4zM41.143 25.6l-0.457 1.543-0.514-1.543h-0.571l0.8 2.286v1.657h0.571v-1.714l0.743-2.229h-0.571zM18.857 30.629h0.286v0.8h0.171v-0.8h0.286v-0.114h-0.743v0.114zM21.143 30.514l-0.343 0.914h0.171l0.057-0.229h0.4l0.057 0.229h0.229l-0.4-0.914h-0.171zM21.143 31.086l0.057-0.4 0.171 0.343h-0.286zM23.429 31.086h0.171v0.114l-0.229 0.057c-0.006 0.001-0.013 0.001-0.019 0.001-0.059 0-0.112-0.022-0.152-0.058l0 0-0.114-0.229c0-0.229 0.114-0.343 0.286-0.343 0.017-0.006 0.037-0.010 0.057-0.010 0.095 0 0.171 0.077 0.171 0.171 0 0.003-0 0.007-0 0.010l0-0h0.171c0-0.229-0.171-0.343-0.4-0.343l-0.343 0.114c-0.076 0.081-0.123 0.191-0.123 0.312 0 0.031 0.003 0.062 0.009 0.091l-0-0.003c0 0.114 0 0.229 0.114 0.343 0.080 0.072 0.187 0.116 0.304 0.116 0.014 0 0.027-0.001 0.040-0.002l-0.002 0c0.171 0 0.286 0 0.4-0.171v-0.343h-0.4v0.171zM25.714 30.514h-0.229v0.914h0.629v-0.171h-0.4v-0.743zM27.6 30.514h-0.171v0.914h0.171v-0.914zM29.486 31.086l-0.343-0.571h-0.171v0.914h0.171v-0.571l0.343 0.571h0.171v-0.914h-0.171v0.571zM31.2 31.029h0.457v-0.171h-0.457v-0.229h0.514v-0.114h-0.686v0.914h0.686v-0.171h-0.514v-0.229zM35.429 30.857h-0.4v-0.343h-0.171v0.914h0.171v-0.4h0.343v0.4h0.171v-0.914h-0.114v0.343zM37.143 31.029h0.4v-0.171h-0.4v-0.229h0.514v-0.114h-0.686v0.914h0.686v-0.171h-0.514v-0.229zM39.429 31.029c0.171 0 0.229-0.114 0.229-0.286 0.001-0.006 0.001-0.013 0.001-0.019 0-0.059-0.022-0.112-0.058-0.152l0 0c-0.069-0.037-0.152-0.059-0.24-0.059-0.016 0-0.032 0.001-0.048 0.002l0.002-0h-0.4v0.914h0.229v-0.4h0.114l0.057 0.114 0.229 0.286h0.229l-0.114-0.171-0.229-0.229zM39.257 30.857h-0.114v-0.229h0.286c0.063 0 0.114 0.051 0.114 0.114s-0.051 0.114-0.114 0.114v0c-0.026 0.004-0.055 0.006-0.086 0.006s-0.060-0.002-0.089-0.007l0.003 0zM41.2 31.029h0.457v-0.171h-0.457v-0.229h0.514v-0.114h-0.686v0.914h0.686v-0.171h-0.514v-0.229z"></path>
</symbol>
<symbol id="icon-company3" viewBox="0 0 59 32">
<path d="M21.029 28.114h0.057l0.114 0.171-0.343 0.229-0.514 0.057-0.457-0.057c-0.171-0.057-0.286-0.114-0.343-0.229-0.114-0.114-0.229-0.229-0.229-0.343-0.056-0.126-0.088-0.274-0.088-0.429s0.032-0.302 0.091-0.436l-0.003 0.007c0-0.114 0.114-0.229 0.229-0.286l0.4-0.229c0.137-0.046 0.294-0.072 0.457-0.072s0.321 0.026 0.468 0.075l-0.011-0.003 0.343 0.171-0.114 0.114h-0.229c-0.128-0.072-0.28-0.114-0.443-0.114-0.005 0-0.010 0-0.015 0h-0.342l-0.286 0.229-0.171 0.229-0.057 0.343 0.057 0.343c0.089 0.191 0.253 0.336 0.452 0.399l0.005 0.001h0.514c0.001 0 0.003 0 0.004 0 0.147 0 0.284-0.043 0.399-0.116l-0.003 0.002h0.057zM24.686 27.543c0 0.114 0 0.286-0.114 0.4 0 0.114-0.114 0.229-0.229 0.343-0.097 0.094-0.21 0.171-0.336 0.226l-0.007 0.003h-0.971c-0.155-0.051-0.288-0.13-0.401-0.23l0.001 0.001-0.229-0.343c-0.114-0.286-0.114-0.571 0-0.857l0.229-0.286 0.4-0.229c0.286-0.114 0.629-0.114 0.971 0 0.114 0 0.229 0.114 0.343 0.229 0.21 0.179 0.343 0.445 0.343 0.741 0 0.001 0 0.002 0 0.002v-0zM24.343 27.543l-0.057-0.343c-0.083-0.196-0.249-0.343-0.452-0.399l-0.005-0.001c-0.102-0.033-0.22-0.053-0.343-0.053s-0.24 0.019-0.351 0.055l0.008-0.002-0.229 0.114c-0.114 0.114-0.171 0.171-0.171 0.286-0.114 0.229-0.114 0.457 0 0.686 0.071 0.185 0.215 0.329 0.395 0.398l0.005 0.002h0.686c0.114 0 0.229-0.114 0.286-0.171l0.171-0.229 0.057-0.343zM27.143 27.886v0.057l0.114-0.057v-0.057l0.8-1.257h0.057l0.057-0.057h0.286v2.057h-0.286v-1.714l-0.857 1.257v0.057h-0.229l-0.857-1.314v1.714h-0.286v-2.057h0.343l0.857 1.314v0.057zM30.171 27.771v0.8h-0.286v-2.057h1.086l0.286 0.171 0.171 0.171v0.286c0.001 0.014 0.002 0.031 0.002 0.047 0 0.161-0.066 0.306-0.173 0.41l-0 0-0.286 0.114-0.4 0.057h-0.4zM30.171 27.543h0.686c0.114 0 0.171-0.057 0.171-0.114l0.114-0.114 0.057-0.171v-0.171l-0.114-0.114c-0.171-0.114-0.286-0.114-0.457-0.114h-0.4v0.8zM34.457 28.571h-0.286l-0.114-0.114-0.171-0.457h-1.143l-0.171 0.457v0.057h-0.4l0.914-2h0.343l0.971 2.057zM32.857 27.771h0.914l-0.4-0.8v-0.171l-0.114 0.057v0.114l-0.4 0.8zM35.771 26.514h0.057l1.371 1.6v-1.6h0.286v2.057h-0.171l-0.057-0.057-1.371-1.543v1.6h-0.286v-2.057h0.171zM39.829 27.714v0.857h-0.286v-0.857l-0.914-1.2h0.343l0.057 0.057 0.571 0.8c0.021 0.047 0.040 0.104 0.055 0.163l0.002 0.008 0.057-0.057 0.057-0.114 0.571-0.8 0.057-0.057h0.286l-0.857 1.2zM27.029 23.086h0.4c2.114-0.743 3.943-2.114 5.143-3.771 1.257-1.714 1.943-3.657 1.886-5.657l-2.343-2c0.457 2.114 0.229 4.343-0.686 6.343-0.973 2.134-2.481 3.88-4.355 5.115l-0.045 0.028z"></path>
<path d="M26.171 23.029h0.057c2.171-1.314 3.771-3.143 4.686-5.257 0.528-1.16 0.836-2.515 0.836-3.942 0-0.957-0.138-1.882-0.396-2.755l0.017 0.069-3.371-2.857c1.079 1.77 1.718 3.912 1.718 6.202 0 3.337-1.355 6.357-3.546 8.54l-0 0zM37.486 16c-0.654 2.341-2.049 4.293-3.912 5.636l-0.030 0.021c-0.53 0.403-1.129 0.782-1.759 1.11l-0.070 0.033c1.6-0.4 3.086-1.143 4.343-2.114 1.2-0.971 2.171-2.171 2.8-3.486l-1.371-1.143z"></path>
<path d="M36.971 15.714l-1.943-1.714c0 1.943-0.629 3.771-1.771 5.371s-2.857 2.914-4.743 3.771h1.314c1.819-0.653 3.367-1.669 4.626-2.968l0.003-0.003c1.257-1.314 2.114-2.857 2.514-4.457zM26.457 7.086l-2.286-1.943c-2.072 0.652-3.817 1.844-5.129 3.412l-0.014 0.017c-1.2 1.543-1.886 3.429-1.886 5.257 0.030 2.212 0.894 4.217 2.291 5.72l-0.005-0.005c1.543 1.714 3.657 2.857 6 3.371 2.114-2.229 3.371-4.914 3.543-7.771s-0.686-5.657-2.514-8zM42.286 15.429c0-2.514-1.143-4.857-3.2-6.629-2.112-1.702-4.828-2.732-7.784-2.732-1.385 0-2.716 0.226-3.961 0.643l0.088-0.026 14.057 12c0.472-0.951 0.764-2.066 0.8-3.245l0-0.012z"></path>
</symbol>
<symbol id="icon-company4" viewBox="0 0 59 32">
<path d="M13.714 12.286c-1.314 0-2.4 1.029-2.4 2.286 0 1.143 1.086 2.171 2.457 2.171s2.457-0.971 2.457-2.229c0-1.2-1.143-2.229-2.457-2.229zM32 11.6c0-1.714-0.8-3.371-2.114-4.571-1.33-1.171-3.087-1.886-5.011-1.886-0.006 0-0.013 0-0.019 0h0.001c-1.943 0-3.714 0.686-5.086 1.886-1.314 1.2-2.057 2.857-2.057 4.571v9.371s14.286-1.429 14.286-9.371zM6.286 24.114c0 1.143 0.571 2.286 1.486 3.143 0.922 0.816 2.141 1.314 3.477 1.314 0.003 0 0.006 0 0.009 0h-0c1.314 0 2.571-0.457 3.486-1.314 0.888-0.768 1.455-1.886 1.486-3.138l0-0.005v-6.571s-9.943 0.971-9.943 6.571zM11.257 25.257c-0.286 0-0.514-0.057-0.743-0.171l-0.457-0.571c-0.114-0.171-0.114-0.4-0.057-0.629 0-0.229 0.171-0.457 0.343-0.629s0.4-0.286 0.686-0.343c0.229 0 0.514 0 0.743 0.114 0.229 0.057 0.4 0.229 0.571 0.4 0.124 0.18 0.199 0.403 0.199 0.644 0 0.333-0.142 0.632-0.369 0.841l-0.001 0.001-0.4 0.286-0.514 0.057zM20.343 23.143v2.457h-0.514v-2.457h0.571zM21.314 24.171v0.4h-1.143v-0.4h1.143zM21.429 23.143v0.4h-1.2v-0.4h1.2zM23.714 24.286v0.171l-0.057 0.457c0 0.171-0.114 0.286-0.229 0.4-0.057 0.114-0.171 0.171-0.343 0.229l-0.4 0.057-0.4-0.057-0.343-0.229c-0.099-0.112-0.177-0.245-0.226-0.392l-0.002-0.008-0.057-0.457v-0.171l0.057-0.457 0.229-0.4 0.343-0.229 0.4-0.057 0.4 0.057c0.171 0.057 0.286 0.114 0.343 0.229l0.229 0.4 0.057 0.457zM23.2 24.457v-0.514l-0.114-0.229c-0.084-0.106-0.214-0.173-0.358-0.173-0.015 0-0.029 0.001-0.043 0.002l0.002-0h-0.229l-0.171 0.171-0.114 0.229v0.8l0.114 0.286 0.171 0.171h0.457l0.171-0.171 0.114-0.286v-0.286zM25.371 24.971v-0.114l-0.229-0.229-0.286-0.057-0.286-0.114-0.286-0.171-0.171-0.229c-0.012-0.043-0.018-0.092-0.018-0.143s0.007-0.1 0.019-0.147l-0.001 0.004v-0.229l0.229-0.229 0.286-0.171c0.093-0.024 0.201-0.037 0.311-0.037 0.176 0 0.344 0.035 0.498 0.098l-0.009-0.003 0.343 0.286 0.114 0.4h-0.571v-0.229l-0.114-0.114h-0.229c-0.034-0.007-0.074-0.012-0.114-0.012s-0.080 0.004-0.118 0.012l0.004-0.001-0.114 0.114-0.057 0.114v0.114l0.114 0.114 0.171 0.057 0.171 0.114 0.4 0.114 0.229 0.171c0.14 0.116 0.229 0.29 0.229 0.485 0 0.010-0 0.020-0.001 0.030l0-0.001-0.057 0.286-0.229 0.171-0.286 0.171c-0.092 0.022-0.197 0.035-0.306 0.035-0.268 0-0.517-0.077-0.729-0.209l0.006 0.003-0.229-0.229-0.057-0.4h0.514v0.229l0.114 0.114 0.171 0.057h0.4c0.093-0.040 0.159-0.125 0.171-0.227l0-0.001zM27.314 23.143v2.457h-0.571v-2.457h0.571zM28.057 23.143v0.4h-2v-0.4h2zM29.943 25.2v0.4h-1.257v-0.457h1.257zM28.8 23.143v2.457h-0.457v-2.457h0.514zM29.771 24.171v0.343h-1.143v-0.343h1.143zM29.943 23.143v0.4h-1.257v-0.4h1.257zM30.286 23.143h0.857c0.229 0 0.343 0 0.514 0.114 0.114 0 0.229 0.114 0.286 0.229 0.114 0.114 0.114 0.229 0.114 0.4l-0.057 0.343c0 0.114-0.114 0.171-0.171 0.229l-0.286 0.171-0.171 0.057h-0.8v-0.4h0.857l0.171-0.171v-0.4l-0.171-0.114-0.229-0.057h-0.4v2.057h-0.514v-2.457zM31.6 25.6l-0.571-1.143h0.571l0.571 1.143h-0.571zM34.286 24.743h-0.629v-0.4h0.571l0.286-0.057 0.114-0.114v-0.4l-0.114-0.171c-0.064-0.036-0.14-0.057-0.221-0.057-0.003 0-0.005 0-0.008 0h-0.457v2.057h-0.571v-2.457h1.029c0.171 0 0.343 0 0.457 0.114 0.271 0.115 0.457 0.379 0.457 0.686v0l-0.114 0.4c-0.114 0.114-0.171 0.229-0.343 0.286-0.133 0.066-0.29 0.108-0.455 0.114l-0.002 0zM37.143 25.2v0.4h-1.314v-0.457h1.314zM36 23.143v2.457h-0.457v-2.457h0.457zM36.971 24.171v0.343h-1.143v-0.343h1.143zM37.143 23.143v0.4h-1.314v-0.4h1.314zM38.571 23.143v2.457h-0.514v-2.457h0.514zM39.314 23.143v0.4h-2v-0.4h2zM41.257 25.2v0.4h-1.314v-0.457h1.314zM40.114 23.143v2.457h-0.514v-2.457h0.514zM41.086 24.171v0.343h-1.143v-0.343h1.143zM41.257 23.143v0.4h-1.314v-0.4h1.314zM41.543 23.143h0.914c0.171 0 0.343 0 0.457 0.114 0.171 0 0.229 0.114 0.343 0.229l0.114 0.4c0 0.114 0 0.229-0.114 0.343 0 0.114-0.057 0.171-0.171 0.229l-0.286 0.171-0.171 0.057h-0.743v-0.4h0.8l0.114-0.171v-0.4l-0.114-0.114-0.229-0.057h-0.4v2.057h-0.571v-2.457zM42.914 25.6l-0.571-1.143h0.571l0.571 1.143h-0.571zM45.029 24.971v-0.114l-0.114-0.114-0.171-0.114-0.229-0.057-0.286-0.114-0.286-0.171-0.171-0.229c-0.037-0.073-0.058-0.16-0.058-0.251 0-0.012 0-0.024 0.001-0.036l-0 0.002 0.057-0.229c0-0.114 0.114-0.171 0.171-0.229l0.286-0.171c0.104-0.029 0.223-0.046 0.346-0.046 0.185 0 0.36 0.038 0.52 0.107l-0.009-0.003 0.286 0.286c0.114 0.114 0.114 0.229 0.114 0.4h-0.457l-0.057-0.229-0.171-0.114h-0.229c-0.026-0.004-0.055-0.006-0.086-0.006s-0.060 0.002-0.089 0.007l0.003-0-0.171 0.114v0.229l0.114 0.114 0.343 0.171 0.343 0.114 0.286 0.171c0.109 0.113 0.176 0.267 0.176 0.436 0 0.027-0.002 0.054-0.005 0.081l0-0.003v0.286l-0.229 0.171-0.286 0.171c-0.092 0.022-0.197 0.035-0.306 0.035-0.268 0-0.517-0.077-0.729-0.209l0.006 0.003-0.229-0.229-0.057-0.4h0.457l0.057 0.229 0.114 0.114 0.114 0.057h0.457c0.093-0.040 0.159-0.125 0.171-0.227l0-0.001z"></path>
</symbol>
<symbol id="icon-company5" viewBox="0 0 59 32">
<path d="M15.314 25.371c0.114 0.114 0.229 0.343 0.229 0.571 0 0.114 0 0.229-0.114 0.343 0 0.114-0.114 0.229-0.229 0.343-0.286 0.171-0.571 0.229-0.971 0.229h-1.657v-3.429h1.657c0.286 0 0.571 0 0.914 0.229l0.229 0.286 0.057 0.343c0 0.229 0 0.4-0.171 0.571-0.114 0.114-0.343 0.229-0.514 0.229 0.229 0.057 0.4 0.171 0.571 0.343zM13.371 24.8h0.686c0.171 0 0.286 0 0.457-0.114l0.114-0.114v-0.4l-0.114-0.171-0.457-0.114h-0.686v0.914zM14.514 26.171c0.114 0 0.171-0.114 0.171-0.171v-0.4l-0.114-0.171-0.514-0.114h-0.686v0.971h0.743c0.171 0 0.286 0 0.457-0.114zM18.629 26.857l-0.857-1.371h-0.343v1.371h-0.857v-3.429h1.486c0.343 0 0.743 0.057 1.029 0.286 0.229 0.171 0.343 0.457 0.343 0.686 0 0.286-0.057 0.571-0.229 0.743-0.171 0.229-0.457 0.343-0.743 0.4l0.971 1.371h-0.857zM17.429 25.029h0.571c0.514 0 0.686-0.171 0.686-0.571v-0.171c-0.029-0.066-0.067-0.123-0.114-0.172l0 0c-0.171-0.114-0.343-0.171-0.571-0.171h-0.571v1.086zM22.914 26.171h-1.543l-0.229 0.686h-0.8l1.429-3.429h0.914l1.429 3.429h-0.857l-0.286-0.686zM22.743 25.6l-0.571-1.429-0.571 1.429h1.143zM28.286 26.857h-0.743l-1.714-2.4v2.4h-0.8v-3.429h0.686l1.714 2.4v-2.4h0.8v3.429zM32.743 26c-0.171 0.286-0.4 0.514-0.686 0.629-0.343 0.171-0.743 0.229-1.143 0.229h-1.371v-3.429h1.371c0.4 0 0.8 0 1.143 0.229 0.286 0.114 0.571 0.343 0.686 0.571 0.149 0.264 0.236 0.579 0.236 0.914s-0.088 0.651-0.241 0.924l0.005-0.009zM31.829 25.943c0.222-0.218 0.36-0.521 0.36-0.857s-0.138-0.639-0.36-0.857l-0-0c-0.229-0.171-0.571-0.286-0.971-0.286h-0.571v2.286h0.571c0.4 0 0.743-0.057 0.971-0.286zM23.429 3.886s10.057 3.429 9.829 8.343v8.343s-10.057-3.429-9.829-8.343v-8.343zM42.171 18.629c1.943-1.143 4.114-1.943 6.4-2.114v-2.629c-2.642 0.901-4.831 2.555-6.374 4.704l-0.026 0.038z"></path>
<path d="M41.029 19.429c1.6-2.857 4.286-5.029 7.543-6.114v-7.486s-14.286 4.857-14 11.886v11.886l1.657-0.629v-1.143c0.355-3.479 2.149-6.479 4.768-8.435l0.032-0.023z"></path>
<path d="M39.714 23.829c0.057-0.857 0.229-1.657 0.457-2.457-1.799 1.875-2.935 4.396-3.028 7.182l-0 0.018 2.8-1.314c-0.286-1.143-0.343-2.286-0.229-3.429zM40.286 23.886c-0.114 1.029-0.057 2.057 0.171 3.086 3.886-2.114 8.286-5.371 8.114-9.257v-0.343c-2.8 0.286-5.429 1.371-7.429 3.086-0.457 1.143-0.8 2.286-0.857 3.429z"></path>
</symbol>
<symbol id="icon-company6" viewBox="0 0 59 32">
<path d="M30.571 15.657c-0.216-0.284-0.346-0.643-0.346-1.033 0-0.039 0.001-0.077 0.004-0.115l-0 0.005v-1.6c0-0.571 0.114-0.914 0.343-1.143 0.229-0.286 0.629-0.4 1.2-0.4s0.914 0.114 1.143 0.286c0.229 0.286 0.343 0.686 0.286 1.029v0.4h-0.914v-0.8c0-0.114-0.114-0.171-0.171-0.229-0.094-0.071-0.214-0.114-0.343-0.114v0c-0.129 0-0.249 0.043-0.344 0.115l0.001-0.001c-0.114 0.057-0.171 0.171-0.171 0.229v2.457c0 0.171 0 0.343 0.114 0.571l0.171 0.114h0.229l0.343-0.057 0.114-0.229v-0.857h0.971v0.4c0 0.343-0.057 0.743-0.286 1.029-0.229 0.229-0.571 0.343-1.143 0.343s-0.971-0.114-1.143-0.4zM34.514 15.714c-0.229-0.286-0.343-0.629-0.343-1.143v-1.714c0-0.514 0.114-0.857 0.343-1.143 0.229-0.229 0.571-0.343 1.143-0.343s0.971 0.114 1.2 0.343c0.229 0.286 0.4 0.629 0.4 1.143v1.714c0 0.514-0.171 0.857-0.4 1.143-0.229 0.229-0.571 0.343-1.143 0.343s-0.971-0.114-1.2-0.343zM36.114 15.257c0.114-0.114 0.114-0.286 0.114-0.514v-2.114c0-0.171 0-0.343-0.114-0.514l-0.114-0.114c-0.034-0.007-0.074-0.012-0.114-0.012s-0.080 0.004-0.118 0.012l0.004-0.001c-0.043-0.012-0.092-0.018-0.143-0.018s-0.1 0.007-0.147 0.019l0.004-0.001-0.171 0.114c-0.114 0.171-0.114 0.343-0.114 0.571v2.114c0 0.171 0 0.343 0.114 0.514l0.171 0.114c0.076 0.032 0.164 0.050 0.257 0.050s0.181-0.018 0.262-0.052l-0.005 0.002 0.171-0.114zM38.343 11.429h1.086l0.743 3.2 0.8-3.257h0.971l0.114 4.629h-0.743l-0.057-3.2-0.743 3.2h-0.571l-0.8-3.2-0.057 3.2h-0.8l0.057-4.571zM43.143 11.429h1.543c0.914 0 1.371 0.4 1.371 1.257s-0.457 1.257-1.429 1.257h-0.571v2.057h-0.914v-4.571zM44.457 13.371h0.286c0.114 0 0.171-0.114 0.286-0.171 0.114-0.114 0.171-0.286 0.114-0.514v-0.4l-0.229-0.229-0.457-0.057h-0.343v1.371h0.343zM47.429 11.429h1.143l1.029 4.571h-0.914l-0.229-1.029h-0.914l-0.229 1.029h-0.914l1.086-4.571zM48.343 14.4l-0.343-1.943-0.343 1.943h0.686zM50.457 11.429h0.686l1.314 2.629v-2.686h0.8v4.629h-0.686l-1.314-2.743v2.743h-0.857v-4.571zM55.143 14.286l-1.086-2.857h0.914l0.686 1.829 0.571-1.829h0.914l-1.086 2.857v1.714h-0.914v-1.714zM32.114 18.057v0.229h-0.8v1.886h-0.343v-1.886h-0.8v-0.229h1.943zM34.571 20.171h-0.286v-0.057l-0.229-0.571h-1.143l-0.229 0.571-0.114 0.057h-0.229l0.971-2.114h0.343l0.971 2.114zM32.971 19.371h0.914l-0.4-0.857-0.057-0.229v0.114l-0.057 0.114-0.4 0.857zM36.229 20h0.229c0.108-0.028 0.203-0.067 0.291-0.117l-0.006 0.003h0.114v-0.571h-0.4v-0.171h0.686v0.8c-0.179 0.118-0.392 0.199-0.621 0.228l-0.007 0.001h-0.286l-0.514-0.057c-0.155-0.051-0.288-0.13-0.401-0.23l0.001 0.001-0.229-0.343c-0.057-0.114-0.114-0.286-0.057-0.457l0.057-0.4 0.229-0.343 0.4-0.229c0.154-0.052 0.331-0.082 0.515-0.082 0.101 0 0.2 0.009 0.295 0.026l-0.010-0.002c0.168 0.011 0.323 0.052 0.465 0.118l-0.008-0.003 0.171 0.114-0.114 0.171h-0.229l-0.114-0.114c-0.112-0.038-0.241-0.060-0.375-0.060-0.029 0-0.058 0.001-0.086 0.003l0.004-0c-0.052-0.008-0.111-0.013-0.171-0.013s-0.12 0.005-0.178 0.014l0.006-0.001-0.286 0.229-0.229 0.229v0.743l0.229 0.286c0.143 0.111 0.325 0.178 0.523 0.178 0.037 0 0.074-0.002 0.11-0.007l-0.004 0zM39.371 19.943h1.029v0.229h-1.371v-2.114h0.343v1.886zM41.543 20.171h-0.4v-2.114h0.343v2.114zM42.743 18.057h0.057l1.429 1.657v-1.657h0.286v2.114h-0.229v-0.057l-1.486-1.6v1.657h-0.286v-2.114h0.229zM46.971 18.057v0.229h-1.143v0.686h0.914v0.229h-0.971v0.743h1.2v0.229h-1.543v-2.114h1.543zM12.114 4.971l14.743 3.6v12.686l-14.743-3.6v-12.686zM11.143 3.829v14.457l16.686 4.114v-14.457l-16.686-4.057z"></path>
<path d="M20.114 29.029l-16.686-4.114v-14.4l16.686 4.114v14.4z"></path>
<path d="M11.429 4.8l14.571 3.543-6.171 5.371-14.571-3.6 6.171-5.314zM11.143 3.886l-7.714 6.629 16.686 4.114 7.714-6.686-16.686-4.057zM21.029 28.229l6.8-5.943-6.8-1.714v7.6z"></path>
</symbol>
<symbol id="icon-facebook" viewBox="0 0 32 32">
<path d="M21.4 5.4h2.6v-5.4h-4c-4.2 0-7.2 2.6-7.2 7.6v4.4h-4.6v5.6h4.6v14.4h5.8v-14.4h4.4l1-5.6h-5.4v-4c0-1.6 0.4-2.6 2.8-2.6z"></path>
</symbol>
<symbol id="icon-linkedin" viewBox="0 0 32 32">
<path d="M32 32v-11.8c0-5.6-1.2-10-8-10-3.2 0-5.4 1.6-6.2 3.4v-3h-6.6v21.4h6.8v-10.6c0-2.8 0.4-5.4 4-5.4 3.4 0 3.4 3.2 3.4 5.6v10.4h6.6zM0.6 10.6h6.6v21.4h-6.6v-21.4zM4 0c-2.4 0-4 1.8-4 4 0 2 1.8 3.8 4 3.8 2 0 3.6-2 3.6-4s-1.6-3.8-3.6-3.8z"></path>
</symbol>
<symbol id="icon-twitter" viewBox="0 0 32 32">
<path  d="M32 6c-1.2 0.6-2.4 1-3.8 1.2 1.4-0.8 2.4-2 3-3.8-1.4 0.8-2.8 1.4-4.2 1.6-1.203-1.248-2.888-2.023-4.755-2.023-3.645 0-6.6 2.955-6.6 6.6 0 0.504 0.057 0.995 0.164 1.467l-0.008-0.044c-5.563-0.181-10.485-2.777-13.775-6.768l-0.025-0.032c-0.568 0.954-0.903 2.104-0.903 3.333 0 2.265 1.141 4.264 2.88 5.453l0.023 0.015c-1 0-2-0.4-3-0.8 0 3.2 2.4 6 5.4 6.4-0.451 0.11-0.968 0.173-1.5 0.173s-1.049-0.063-1.545-0.182l0.045 0.009c0.774 2.684 3.139 4.642 5.983 4.799l0.017 0.001c-2.188 1.671-4.961 2.678-7.97 2.678-0.504 0-1.001-0.028-1.49-0.083l0.060 0.005c2.881 1.922 6.422 3.066 10.231 3.066 10.273 0 18.6-8.328 18.6-18.6 0-0.375-0.011-0.748-0.033-1.117l0.002 0.051c1.2-0.8 2.4-2 3.2-3.4z"></path>
</symbol>
</defs>
</svg>
