<!-- Generated by IcoMoon.io -->
<svg version="1.1" xmlns="http://www.w3.org/2000/svg" width="32" height="32" viewBox="0 0 32 32">
<title>instagram</title>
<path fill="#f4f4fd" d="M32 9.4c0-1.6-0.4-2.8-0.8-4-0.4-1-1-2-2-2.8-0.722-0.749-1.586-1.357-2.549-1.78l-0.051-0.020-4-0.8c-1.008-0.033-2.193-0.052-3.382-0.052-4.8 0-9.528 0.31-14.165 0.91l0.548-0.058c-1 0.4-2 1-2.8 2-0.845 0.764-1.522 1.698-1.98 2.748l-0.020 0.052c-0.2 1-0.6 2-0.6 3.8-0.063 1.391-0.099 3.021-0.099 4.66 0 4.348 0.254 8.637 0.748 12.852l-0.049-0.512 2 3c0.8 0.8 1.8 1.4 2.8 1.8l4 0.8c0.898 0.025 1.955 0.039 3.015 0.039 4.929 0 9.787-0.305 14.555-0.897l-0.57 0.058c2.158-0.873 3.816-2.597 4.583-4.744l0.017-0.056 0.8-3.8c0.118-1.972 0.186-4.278 0.186-6.6s-0.067-4.628-0.2-6.916l0.015 0.316zM29 22.4c0 1.6-0.2 2.4-0.4 3-0.6 1.4-1.8 2.6-3.2 3-2.816 0.25-6.091 0.393-9.4 0.393s-6.584-0.143-9.821-0.422l0.421 0.029c-0.6 0-1.2-0.6-1.8-1.2-0.6-0.4-1-1-1.2-1.8l-0.6-3c-0.041-1.13-0.064-2.458-0.064-3.791 0-4.301 0.241-8.546 0.711-12.721l-0.047 0.512c0.2-0.6 0.6-1.2 1.2-1.6 0.6-0.6 1.2-1 2-1.2 0.4-0.2 1.2-0.6 2.8-0.6 1.128-0.040 2.453-0.063 3.784-0.063 4.304 0 8.551 0.241 12.729 0.71l-0.513-0.047 1.8 1.2 1.2 1.8c0 0.6 0.4 1.4 0.4 3 0.116 1.913 0.182 4.149 0.182 6.4s-0.066 4.487-0.196 6.706l0.014-0.306z"></path>
<path fill="#f4f4fd" d="M16 7.8c-0.384-0.064-0.826-0.1-1.277-0.1-4.529 0-8.2 3.671-8.2 8.2s3.671 8.2 8.2 8.2c0.451 0 0.893-0.036 1.324-0.106l-0.047 0.006c3.69-0.852 6.4-4.109 6.4-8s-2.71-7.148-6.345-7.989l-0.055-0.011zM16 21.4c-2.982 0-5.4-2.418-5.4-5.4s2.418-5.4 5.4-5.4v0c2.982 0 5.4 2.418 5.4 5.4s-2.418 5.4-5.4 5.4v0zM26.6 7.4c0 1.105-0.895 2-2 2s-2-0.895-2-2v0c0-1.105 0.895-2 2-2s2 0.895 2 2v0z"></path>
</svg>
