<!-- Generated by IcoMoon.io -->
<svg version="1.1" xmlns="http://www.w3.org/2000/svg" width="32" height="32" viewBox="0 0 32 32">
<title>twitter</title>
<path fill="#f4f4fd" d="M32 6c-1.2 0.6-2.4 1-3.8 1.2 1.4-0.8 2.4-2 3-3.8-1.4 0.8-2.8 1.4-4.2 1.6-1.203-1.248-2.888-2.023-4.755-2.023-3.645 0-6.6 2.955-6.6 6.6 0 0.504 0.057 0.995 0.164 1.467l-0.008-0.044c-5.563-0.181-10.485-2.777-13.775-6.768l-0.025-0.032c-0.568 0.954-0.903 2.104-0.903 3.333 0 2.265 1.141 4.264 2.88 5.453l0.023 0.015c-1 0-2-0.4-3-0.8 0 3.2 2.4 6 5.4 6.4-0.451 0.11-0.968 0.173-1.5 0.173s-1.049-0.063-1.545-0.182l0.045 0.009c0.774 2.684 3.139 4.642 5.983 4.799l0.017 0.001c-2.188 1.671-4.961 2.678-7.97 2.678-0.504 0-1.001-0.028-1.49-0.083l0.060 0.005c2.881 1.922 6.422 3.066 10.231 3.066 10.273 0 18.6-8.328 18.6-18.6 0-0.375-0.011-0.748-0.033-1.117l0.002 0.051c1.2-0.8 2.4-2 3.2-3.4z"></path>
</svg>
